<?xml version="1.0" standalone="no"?>
<svg id="svg-dark" xmlns="http://www.w3.org/2000/svg" viewBox="0 0 600 240" width="100%" height="100%" class="max-w-full h-auto drop-shadow-xl">
                        <defs>
                            <linearGradient id="sonix-grad-dark" x1="0%" y1="0%" x2="100%" y2="0%">
                                <stop offset="0%" stop-color="#3B82F6"/>   <!-- Blue 500 -->
                                <stop offset="50%" stop-color="#06B6D4"/>   <!-- Cyan 500 -->
                                <stop offset="100%" stop-color="#10B981"/>  <!-- Emerald 500 -->
                            </linearGradient>
                            <linearGradient id="text-grad-dark" x1="0%" y1="0%" x2="100%" y2="100%">
                                <stop offset="0%" stop-color="#FFFFFF"/>
                                <stop offset="100%" stop-color="#CBD5E1"/>
                            </linearGradient>
                        </defs>
                        
                        <g transform="translate(15, 20)">
                            <!-- The Continuous Wave -> S -> Arrow Path -->
                            <path d="M 20 100&#10;                                     C 35 100, 35 40, 50 40&#10;                                     C 65 40, 65 100, 80 100&#10;                                     C 100 100, 80 160, 110 160&#10;                                     C 150 160, 150 100, 120 100&#10;                                     C 90 100, 90 40, 130 40&#10;                                     L 155 40&#10;                                     L 135 20&#10;                                     M 155 40&#10;                                     L 135 60" fill="none" stroke="url(#sonix-grad-dark)" stroke-width="14" stroke-linecap="round" stroke-linejoin="round"/>
                        </g>

                        <!-- Text Wordmark -->
                        <text x="200" y="145" font-family="'Inter', system-ui, sans-serif" font-weight="900" font-size="96" fill="url(#text-grad-dark)" letter-spacing="1">SONIX</text>
                        <text x="205" y="195" font-family="'Inter', system-ui, sans-serif" font-weight="700" font-size="20" fill="#64748B" letter-spacing="11">AUDIO CONVERTER</text>
                    </svg>